<?xml version="1.0" standalone="no"?>
<!DOCTYPE svg PUBLIC "-//W3C//DTD SVG 20010904//EN"
 "http://www.w3.org/TR/2001/REC-SVG-20010904/DTD/svg10.dtd">
<svg version="1.0" xmlns="http://www.w3.org/2000/svg"
 width="70.000000pt" height="70.000000pt" viewBox="0 0 70.000000 70.000000"
 preserveAspectRatio="xMidYMid meet">
<metadata>
Created by potrace 1.11, written by Peter Selinger 2001-2013
</metadata>
<g transform="translate(0.000000,70.000000) scale(0.100000,-0.100000)"
fill="#000000" stroke="none">
<path d="M280 686 c-74 -16 -127 -46 -176 -98 -134 -139 -130 -353 8 -484 201
-193 526 -86 577 189 34 184 -93 361 -284 396 -32 6 -61 11 -64 10 -3 0 -31
-6 -61 -13z m90 -326 c0 -103 -1 -110 -20 -110 -19 0 -20 7 -20 110 0 103 1
110 20 110 19 0 20 -7 20 -110z"/>
</g>
</svg>
